<svg width="68" height="68" viewBox="0 0 68 68" fill="none" xmlns="http://www.w3.org/2000/svg">
<rect x="0.75" y="0.75" width="66.5" height="66.5" rx="33.25" stroke="#222222" stroke-width="1.5"/>
<g clip-path="url(#clip0_2001_365)">
<path d="M47 32.0002C47 31.2045 46.6839 30.4414 46.1213 29.8788C45.5587 29.3162 44.7956 29.0002 44 29.0002H35V27.8752C35.8583 27.6522 36.6185 27.1509 37.1613 26.4497C37.7042 25.7484 37.9992 24.887 38 24.0002C38 20.5002 34.695 18.2614 34.555 18.1677C34.3907 18.058 34.1975 17.9995 34 17.9995C33.8025 17.9995 33.6093 18.058 33.445 18.1677C33.305 18.2614 30 20.5002 30 24.0002C30.0008 24.887 30.2958 25.7484 30.8387 26.4497C31.3815 27.1509 32.1417 27.6522 33 27.8752V29.0002H24C23.2044 29.0002 22.4413 29.3162 21.8787 29.8788C21.3161 30.4414 21 31.2045 21 32.0002V34.9164C21.001 36.0073 21.3515 37.0692 22 37.9464V43.0002C22 43.7958 22.3161 44.5589 22.8787 45.1215C23.4413 45.6841 24.2044 46.0002 25 46.0002H43C43.7956 46.0002 44.5587 45.6841 45.1213 45.1215C45.6839 44.5589 46 43.7958 46 43.0002V37.9464C46.6485 37.0692 46.999 36.0073 47 34.9164V32.0002ZM32 24.0002C32 22.3039 33.25 20.9427 34 20.2764C34.75 20.9427 36 22.3039 36 24.0002C36 24.5306 35.7893 25.0393 35.4142 25.4144C35.0391 25.7894 34.5304 26.0002 34 26.0002C33.4696 26.0002 32.9609 25.7894 32.5858 25.4144C32.2107 25.0393 32 24.5306 32 24.0002ZM23 32.0002C23 31.7349 23.1054 31.4806 23.2929 31.2931C23.4804 31.1055 23.7348 31.0002 24 31.0002H44C44.2652 31.0002 44.5196 31.1055 44.7071 31.2931C44.8946 31.4806 45 31.7349 45 32.0002V34.9164C45 36.5727 43.6925 37.9552 42.085 37.9989C41.684 38.0103 41.2849 37.9411 40.9111 37.7955C40.5374 37.6499 40.1966 37.4309 39.909 37.1513C39.6213 36.8717 39.3927 36.5373 39.2366 36.1678C39.0805 35.7983 39 35.4013 39 35.0002C39 34.7349 38.8946 34.4806 38.7071 34.2931C38.5196 34.1055 38.2652 34.0002 38 34.0002C37.7348 34.0002 37.4804 34.1055 37.2929 34.2931C37.1054 34.4806 37 34.7349 37 35.0002C37 35.7958 36.6839 36.5589 36.1213 37.1215C35.5587 37.6841 34.7956 38.0002 34 38.0002C33.2044 38.0002 32.4413 37.6841 31.8787 37.1215C31.3161 36.5589 31 35.7958 31 35.0002C31 34.7349 30.8946 34.4806 30.7071 34.2931C30.5196 34.1055 30.2652 34.0002 30 34.0002C29.7348 34.0002 29.4804 34.1055 29.2929 34.2931C29.1054 34.4806 29 34.7349 29 35.0002C29.0002 35.4014 28.9198 35.7986 28.7638 36.1682C28.6077 36.5378 28.3791 36.8724 28.0915 37.1521C27.8038 37.4318 27.463 37.651 27.0892 37.7967C26.7153 37.9423 26.3161 38.0115 25.915 38.0002C24.3075 37.9552 23 36.5727 23 34.9164V32.0002ZM43 44.0002H25C24.7348 44.0002 24.4804 43.8948 24.2929 43.7073C24.1054 43.5197 24 43.2654 24 43.0002V39.5702C24.5854 39.8354 25.2176 39.9816 25.86 40.0002C26.5283 40.0209 27.1939 39.9064 27.8169 39.6635C28.4398 39.4205 29.0072 39.0542 29.485 38.5864C29.6715 38.4046 29.8437 38.2086 30 38.0002C30.4657 38.6211 31.0697 39.1252 31.7639 39.4723C32.4582 39.8194 33.2238 40.0002 34 40.0002C34.7762 40.0002 35.5418 39.8194 36.2361 39.4723C36.9303 39.1252 37.5343 38.6211 38 38.0002C38.1568 38.2078 38.3294 38.4029 38.5163 38.5839C39.4465 39.4951 40.6978 40.0038 42 40.0002C42.0475 40.0002 42.095 40.0002 42.1425 40.0002C42.784 39.9812 43.4154 39.8351 44 39.5702V43.0002C44 43.2654 43.8946 43.5197 43.7071 43.7073C43.5196 43.8948 43.2652 44.0002 43 44.0002Z" fill="#222222"/>
</g>
<defs>
<clipPath id="clip0_2001_365">
<rect width="32" height="32" fill="white" transform="translate(18 18)"/>
</clipPath>
</defs>
</svg>
