<svg width="68" height="68" viewBox="0 0 68 68" fill="none" xmlns="http://www.w3.org/2000/svg">
<rect x="0.75" y="0.75" width="66.5" height="66.5" rx="33.25" stroke="#222222" stroke-width="1.5"/>
<g clip-path="url(#clip0_2001_360)">
<path d="M49.9275 32.625L48.1775 28.25C48.029 27.8798 47.7728 27.5628 47.4421 27.3399C47.1114 27.117 46.7213 26.9986 46.3225 27H42V26C42 25.7348 41.8946 25.4804 41.7071 25.2929C41.5196 25.1054 41.2652 25 41 25H22C21.4696 25 20.9609 25.2107 20.5858 25.5858C20.2107 25.9609 20 26.4696 20 27V41C20 41.5304 20.2107 42.0391 20.5858 42.4142C20.9609 42.7893 21.4696 43 22 43H24.125C24.3453 43.8604 24.8457 44.623 25.5473 45.1676C26.2489 45.7122 27.1118 46.0078 28 46.0078C28.8882 46.0078 29.7511 45.7122 30.4527 45.1676C31.1543 44.623 31.6547 43.8604 31.875 43H38.125C38.3453 43.8604 38.8457 44.623 39.5473 45.1676C40.2489 45.7122 41.1118 46.0078 42 46.0078C42.8882 46.0078 43.7511 45.7122 44.4527 45.1676C45.1543 44.623 45.6547 43.8604 45.875 43H48C48.5304 43 49.0391 42.7893 49.4142 42.4142C49.7893 42.0391 50 41.5304 50 41V33C50.0003 32.8715 49.9757 32.7441 49.9275 32.625ZM42 29H46.3225L47.5225 32H42V29ZM22 27H40V35H22V27ZM28 44C27.6044 44 27.2178 43.8827 26.8889 43.6629C26.56 43.4432 26.3036 43.1308 26.1522 42.7654C26.0009 42.3999 25.9613 41.9978 26.0384 41.6098C26.1156 41.2219 26.3061 40.8655 26.5858 40.5858C26.8655 40.3061 27.2219 40.1156 27.6098 40.0384C27.9978 39.9613 28.3999 40.0009 28.7654 40.1522C29.1308 40.3036 29.4432 40.56 29.6629 40.8889C29.8827 41.2178 30 41.6044 30 42C30 42.5304 29.7893 43.0391 29.4142 43.4142C29.0391 43.7893 28.5304 44 28 44ZM38.125 41H31.875C31.6547 40.1396 31.1543 39.377 30.4527 38.8324C29.7511 38.2878 28.8882 37.9922 28 37.9922C27.1118 37.9922 26.2489 38.2878 25.5473 38.8324C24.8457 39.377 24.3453 40.1396 24.125 41H22V37H40V38.5387C39.5402 38.8045 39.1377 39.159 38.8158 39.5814C38.4939 40.0039 38.2591 40.4861 38.125 41ZM42 44C41.6044 44 41.2178 43.8827 40.8889 43.6629C40.56 43.4432 40.3036 43.1308 40.1522 42.7654C40.0009 42.3999 39.9613 41.9978 40.0384 41.6098C40.1156 41.2219 40.3061 40.8655 40.5858 40.5858C40.8655 40.3061 41.2219 40.1156 41.6098 40.0384C41.9978 39.9613 42.3999 40.0009 42.7654 40.1522C43.1308 40.3036 43.4432 40.56 43.6629 40.8889C43.8827 41.2178 44 41.6044 44 42C44 42.5304 43.7893 43.0391 43.4142 43.4142C43.0391 43.7893 42.5304 44 42 44ZM48 41H45.875C45.6521 40.1417 45.1507 39.3815 44.4495 38.8387C43.7483 38.2958 42.8868 38.0008 42 38V34H48V41Z" fill="#222222"/>
</g>
<defs>
<clipPath id="clip0_2001_360">
<rect width="32" height="32" fill="white" transform="translate(18 18)"/>
</clipPath>
</defs>
</svg>
