<svg width="68" height="68" viewBox="0 0 68 68" fill="none" xmlns="http://www.w3.org/2000/svg">
<rect x="0.75" y="0.75" width="66.5" height="66.5" rx="33.25" stroke="#222222" stroke-width="1.5"/>
<path d="M48.9537 23.9863C48.9395 23.7417 48.8358 23.5108 48.6626 23.3375C48.4893 23.1642 48.2584 23.0606 48.0137 23.0463C41.5437 22.6713 36.3487 24.6388 34.1162 28.3238C32.6412 30.7601 32.6437 33.7188 34.0962 36.5413C33.2695 37.5255 32.6653 38.6768 32.325 39.9163L30.2912 37.8751C31.2687 35.8338 31.2312 33.7063 30.1662 31.9388C28.5162 29.2151 24.7075 27.7551 19.9787 28.0326C19.7341 28.0469 19.5032 28.1505 19.3299 28.3238C19.1567 28.4971 19.053 28.7279 19.0387 28.9726C18.76 33.7013 20.2212 37.5101 22.945 39.1601C23.8438 39.7092 24.8767 39.9999 25.93 40.0001C26.9524 39.9875 27.9588 39.7453 28.875 39.2913L32 42.4163V46.0001C32 46.2653 32.1054 46.5196 32.2929 46.7072C32.4804 46.8947 32.7348 47.0001 33 47.0001C33.2652 47.0001 33.5196 46.8947 33.7071 46.7072C33.8946 46.5196 34 46.2653 34 46.0001V42.3138C33.9955 40.7229 34.5369 39.1787 35.5337 37.9388C36.8199 38.611 38.2464 38.9707 39.6975 38.9888C41.1005 38.9934 42.4774 38.6101 43.6762 37.8813C47.3612 35.6513 49.3337 30.4563 48.9537 23.9863ZM23.9762 37.4501C22.0587 36.2888 20.9737 33.5401 21 30.0001C24.54 29.9701 27.2887 31.0588 28.45 32.9763C29.0562 33.9763 29.155 35.1426 28.7575 36.3438L25.7062 33.2926C25.5172 33.113 25.2654 33.0143 25.0047 33.0176C24.7439 33.021 24.4948 33.126 24.3104 33.3104C24.126 33.4948 24.0209 33.744 24.0176 34.0048C24.0142 34.2655 24.1129 34.5173 24.2925 34.7063L27.3437 37.7576C26.1425 38.1551 24.9775 38.0563 23.9762 37.4501ZM42.64 36.1726C40.965 37.1863 38.9962 37.2638 36.9962 36.4226L43.7075 29.7101C43.8871 29.521 43.9858 29.2693 43.9824 29.0085C43.9791 28.7477 43.874 28.4986 43.6896 28.3142C43.5052 28.1298 43.2561 28.0247 42.9953 28.0214C42.7346 28.018 42.4828 28.1167 42.2937 28.2963L35.5812 35.0001C34.7362 33.0001 34.8125 31.0301 35.8312 29.3563C37.5737 26.4813 41.7062 24.8788 46.9975 25.0026C47.1175 30.2926 45.5175 34.4301 42.64 36.1726Z" fill="#222222"/>
</svg>
